<svg width="19" height="21" viewBox="0 0 19 21" fill="none" xmlns="http://www.w3.org/2000/svg">
<path d="M12.8232 12.375C11.6904 12.375 11.1826 13 9.34668 13C7.47168 13 6.96387 12.375 5.83105 12.375C2.94043 12.375 0.59668 14.7578 0.59668 17.6484V18.625C0.59668 19.6797 1.41699 20.5 2.47168 20.5H16.2217C17.2373 20.5 18.0967 19.6797 18.0967 18.625V17.6484C18.0967 14.7578 15.7139 12.375 12.8232 12.375ZM16.2217 18.625H2.47168V17.6484C2.47168 15.7734 3.95605 14.25 5.83105 14.25C6.41699 14.25 7.31543 14.875 9.34668 14.875C11.3389 14.875 12.2373 14.25 12.8232 14.25C14.6982 14.25 16.2217 15.7734 16.2217 17.6484V18.625ZM9.34668 11.75C12.4326 11.75 14.9717 9.25 14.9717 6.125C14.9717 3.03906 12.4326 0.5 9.34668 0.5C6.22168 0.5 3.72168 3.03906 3.72168 6.125C3.72168 9.25 6.22168 11.75 9.34668 11.75ZM9.34668 2.375C11.3779 2.375 13.0967 4.09375 13.0967 6.125C13.0967 8.19531 11.3779 9.875 9.34668 9.875C7.27637 9.875 5.59668 8.19531 5.59668 6.125C5.59668 4.09375 7.27637 2.375 9.34668 2.375Z" fill="white"/>
</svg>
