<svg width="25" height="25" viewBox="0 0 430 430" fill="none" xmlns="http://www.w3.org/2000/svg">
<path d="M160.7 78.7008C161.7 81.9008 159.9 85.2008 156.8 86.2008C139.8 91.6008 124.8 100.701 112.1 113.401C101.5 124.001 93.3004 136.401 87.8004 150.101C86.9004 152.401 84.6004 153.901 82.2004 153.901C81.4004 153.901 80.7004 153.801 80.0004 153.501C76.9004 152.301 75.4004 148.801 76.7004 145.701C82.9004 130.401 91.9004 116.701 103.7 105.001C117.6 91.1008 134.7 80.7008 153.3 74.8008C156.3 73.8008 159.7 75.6008 160.7 78.7008ZM388.5 387.901C387.3 389.101 385.8 389.701 384.2 389.701C382.7 389.701 381.2 389.101 380 388.001L293.9 303.401C265 330.201 228.1 343.701 191.1 343.701C152.4 343.701 113.7 329.001 84.2004 299.501C25.3004 240.601 25.3004 144.701 84.2004 85.7008C143.1 26.7008 239 26.8008 298 85.7008C355.4 143.101 356.9 235.701 302.4 294.901L388.4 379.501C390.8 381.701 390.8 385.501 388.5 387.901ZM289.5 290.901C343.8 236.601 343.8 148.401 289.5 94.1008C262.4 67.0008 226.7 53.4008 191.1 53.4008C155.5 53.4008 119.8 67.0008 92.7004 94.1008C38.4004 148.401 38.4004 236.601 92.7004 290.901C147 345.201 235.3 345.101 289.5 290.901Z" fill="url(#paint0_linear_2170_5039)"/>
<defs>
<linearGradient id="paint0_linear_2170_5039" x1="84.1754" y1="85.7132" x2="387.425" y2="388.963" gradientUnits="userSpaceOnUse">
<stop stop-color="#CB5EEE"/>
<stop offset="0.4433" stop-color="#8C9FED"/>
<stop offset="0.8155" stop-color="#5DCFEC"/>
<stop offset="1" stop-color="#4BE1EC"/>
</linearGradient>
</defs>
</svg>
